<svg width="206" height="53" viewBox="0 0 206 53" fill="none" xmlns="http://www.w3.org/2000/svg">
<path d="M15.7522 28.1822L7.9326 16.7692H5.0398V28.2048H0V12.2492H4.7912L0.0226005 5.4014V0.813599H10.057C10.057 0.813599 20.114 0.813603 20.114 8.79139C20.114 13.6504 16.4076 15.5714 13.4922 16.2946L21.6734 28.1822H15.7522ZM10.6898 12.1814C12.0232 12.0684 15.0742 11.4808 15.0742 8.76879C15.0742 5.3562 10.0344 5.3562 10.0344 5.3562H5.989L10.6898 12.1814Z" fill="white"/>
<path d="M40.1828 25.0182H29.606L28.3178 28.1822H22.8938L34.8944 0L46.9402 28.1822H41.5162L40.1828 25.0182ZM31.2332 21.0632H38.5556L34.8944 11.5712L31.2332 21.0632Z" fill="white"/>
<path d="M55.37 0.791016C62.6924 0.791016 72.9754 2.32782 72.9754 14.4866C72.9754 26.1934 62.8732 28.1823 55.37 28.1823H50.3302V0.791016H55.37ZM67.8904 14.4866C67.8904 3.52562 55.37 5.24322 55.37 5.24322V23.7074C55.37 23.73 67.8904 25.2894 67.8904 14.4866Z" fill="white"/>
<path d="M85.4054 4.9946V24.0012H88.931V28.1822H76.84V24.0012H80.3656V4.9946H76.9982V0.813599H88.7502V4.9946H85.4054Z" fill="white"/>
<path d="M107.553 28.5438C87.6655 28.5438 87.7107 0.452026 107.553 0.452026C127.306 0.452026 127.351 28.5438 107.553 28.5438ZM107.553 4.90423C94.5585 4.90423 94.5133 24.1142 107.553 24.1142C120.594 24.1142 120.594 4.90423 107.553 4.90423Z" fill="white"/>
<path d="M154.245 14.7352L166.765 28.2048H160.189L150.9 17.7862L148.053 20.679V28.1822H143.013V0.791016H148.053V14.5996L160.392 0.791016H166.675L154.245 14.7352Z" fill="white"/>
<path d="M190.857 8.79142C190.857 16.7692 180.823 16.7692 180.823 16.7692H175.828V28.2048H170.788V12.2492H175.557L170.788 5.40143V0.813625H180.823C180.823 0.791025 190.857 0.791029 190.857 8.79142ZM185.862 8.79142C185.862 5.37883 180.823 5.37882 180.823 5.37882H176.777L181.478 12.1814C182.811 12.0232 185.862 11.4356 185.862 8.79142Z" fill="white"/>
<path d="M202.473 4.9946V24.0012H205.999V28.1822H193.908V24.0012H197.434V4.9946H194.066V0.813599H205.818V4.9946H202.473Z" fill="white"/>
<path d="M47.234 49.1098H46.1493V51.1212H44.4091V45.0418H47.1888C47.912 45.0418 48.477 45.2226 48.8838 45.5842C49.2906 45.9458 49.5166 46.443 49.5166 47.0532C49.5166 47.7086 49.3132 48.2058 48.929 48.5674C48.4996 48.9516 47.9572 49.1098 47.234 49.1098ZM46.1493 46.33V47.8442H46.7369C47.0759 47.8442 47.3244 47.7764 47.46 47.6634C47.6182 47.5504 47.686 47.3696 47.686 47.0984C47.686 46.8498 47.6182 46.669 47.4826 46.556C47.3244 46.4204 47.0759 46.33 46.7369 46.33H46.1493Z" fill="white"/>
<path d="M55.1893 51.1438L54.7825 50.1268H52.3643L51.9123 51.1438H50.0817L52.6581 45.0645H54.5565L57.0651 51.1438H55.1893ZM52.8163 48.9065H54.3079L53.5621 46.9403L52.8163 48.9065Z" fill="white"/>
<path d="M59.3928 45.0418H64.4552V49.9008H65.2688V52.4998H63.7094V51.1212H59.6414V52.4998H58.082V49.9008C58.3758 49.8556 58.6244 49.7426 58.8504 49.5392C59.0764 49.3132 59.2346 49.0646 59.325 48.7482C59.3928 48.4318 59.438 48.025 59.438 47.5504V45.0418H59.3928ZM61.0878 46.2622V47.686C61.0878 48.1832 61.0426 48.6126 60.9296 48.9742C60.8166 49.3358 60.6132 49.6522 60.342 49.9008H62.715V46.2622H61.0878Z" fill="white"/>
<path d="M66.9413 45.0418H68.6815V51.1212H66.9413V45.0418Z" fill="white"/>
<path d="M77.9475 48.0928C77.9475 48.9968 77.5859 49.7426 76.8853 50.3754C76.1847 50.9856 75.3033 51.2794 74.2411 51.2794C73.1789 51.2794 72.2975 50.9856 71.5969 50.3754C70.8963 49.7652 70.5347 48.9968 70.5347 48.0928C70.5347 47.6634 70.6251 47.2566 70.8059 46.8498C70.9867 46.443 71.2353 46.104 71.5969 45.8102C72.2975 45.2 73.1789 44.9062 74.2411 44.9062C75.3033 44.9062 76.1847 45.2 76.8853 45.8102C77.2243 46.104 77.4955 46.4656 77.6763 46.8498C77.8571 47.2566 77.9475 47.686 77.9475 48.0928ZM74.2411 46.443C73.6987 46.443 73.2467 46.6012 72.8851 46.9176C72.5235 47.234 72.3427 47.6408 72.3427 48.1154C72.3427 48.5674 72.5235 48.929 72.8851 49.2454C73.2467 49.5618 73.6987 49.72 74.2411 49.72C74.7835 49.72 75.2355 49.5618 75.5971 49.2454C75.9587 48.9064 76.1395 48.5222 76.1395 48.0702C76.1395 47.6182 75.9587 47.2114 75.5971 46.895C75.2129 46.6012 74.7609 46.443 74.2411 46.443Z" fill="white"/>
<path d="M87.7332 49.1097V50.9855C87.123 51.1889 86.6258 51.2793 86.219 51.2793C85.1794 51.2793 84.3206 50.9855 83.62 50.3753C83.3036 50.0815 83.055 49.7425 82.8742 49.3583C82.6934 48.9741 82.603 48.5673 82.603 48.1605C82.603 47.7311 82.6934 47.3243 82.8742 46.9401C83.055 46.5559 83.3036 46.1943 83.62 45.9231C84.298 45.2903 85.1568 44.9739 86.1512 44.9739C86.6484 44.9739 87.1682 45.0869 87.7106 45.2903V47.1887C87.3264 46.7367 86.8066 46.5333 86.1964 46.5333C85.7218 46.5333 85.315 46.6689 84.9986 46.9401C84.6144 47.2791 84.411 47.6859 84.411 48.1831C84.411 48.6577 84.5918 49.0645 84.9534 49.3809C85.2924 49.6521 85.6992 49.8103 86.1964 49.8103C86.8066 49.7425 87.3038 49.5165 87.7332 49.1097Z" fill="white"/>
<path d="M93.8126 46.3978H92.3888V51.1438H90.6712V46.3978H89.2474V45.0645H93.8352V46.3978H93.8126Z" fill="white"/>
<path d="M94.92 45.0418H96.8636L98.1292 47.7538L99.2366 45.0418H101.09L98.084 51.1212H96.2534L97.18 49.4036L94.92 45.0418Z" fill="white"/>
<path d="M102.717 45.0418H107.779V49.9008H108.593V52.4998H107.034V51.1212H102.966V52.4998H101.406V49.9008C101.7 49.8556 101.949 49.7426 102.175 49.5392C102.401 49.3132 102.559 49.0646 102.649 48.7482C102.717 48.4318 102.762 48.025 102.762 47.5504V45.0418H102.717ZM104.412 46.2622V47.686C104.412 48.1832 104.367 48.6126 104.254 48.9742C104.141 49.3358 103.937 49.6522 103.666 49.9008H106.039V46.2622H104.412Z" fill="white"/>
<path d="M114.062 45.0418V46.3752H111.983V47.3922H113.949V48.7256H111.983V49.7652H114.062V51.0986H110.266V45.0192H114.062V45.0418Z" fill="white"/>
<path d="M117.678 45.0418V47.3244H120.187V45.0418H121.927V51.1212H120.187V48.6578H117.678V51.1212H115.938V45.0418H117.678Z" fill="white"/>
<path d="M128.074 46.3978H126.65V51.1438H124.91V46.3978H123.486V45.0645H128.074V46.3978Z" fill="white"/>
<path d="M129.611 45.0418H131.351V51.1212H129.611V45.0418Z" fill="white"/>
<path d="M136.323 51.1438H133.543V45.0645H136.142C136.798 45.0645 137.295 45.2226 137.611 45.539C137.883 45.8102 138.018 46.1945 138.018 46.6917C138.018 46.9629 137.95 47.2115 137.837 47.4375C137.702 47.6635 137.521 47.8216 137.295 47.912C137.679 47.9572 137.973 48.0703 138.199 48.2737C138.493 48.5449 138.651 48.9064 138.651 49.381C138.651 49.8782 138.493 50.285 138.154 50.5788C137.724 50.9404 137.114 51.1438 136.323 51.1438ZM135.261 46.2623V47.46H135.577C135.894 47.46 136.097 47.3923 136.233 47.2793C136.346 47.1889 136.391 47.0533 136.391 46.8725C136.391 46.7143 136.346 46.5787 136.233 46.4657C136.097 46.3527 135.871 46.2848 135.577 46.2848H135.261V46.2623ZM135.261 48.6353V49.9235H135.645C136.21 49.9235 136.572 49.833 136.73 49.6748C136.82 49.5844 136.866 49.4489 136.866 49.2907C136.866 49.1099 136.798 48.9517 136.685 48.8613C136.527 48.7257 136.188 48.6578 135.6 48.6578H135.261V48.6353Z" fill="white"/>
<path d="M145.341 45.0418V47.5504L147.465 45.0418H149.612L146.945 47.9346L149.838 51.1438H147.623L145.363 48.4996V51.1438H143.623V45.0644H145.341V45.0418Z" fill="white"/>
<path d="M157.228 51.1438H155.488V46.3978H153.092V51.1438H151.352V45.0645H157.228V51.1438Z" fill="white"/>
<path d="M159.42 45.0418H161.161V51.1212H159.42V45.0418Z" fill="white"/>
</svg>
