<svg width="438" height="61" viewBox="0 0 438 61" fill="none" xmlns="http://www.w3.org/2000/svg">
<g filter="url(#filter0_i)">
<path d="M33.4252 59.8009L16.8325 35.5832H10.6941V59.8489H0V25.9921H10.1666L0.0479569 11.4615V1.72644H21.3403C21.3403 1.72644 42.6807 1.72645 42.6807 18.6548C42.6807 28.9653 34.8159 33.0416 28.6296 34.5761L45.9896 59.8009H33.4252ZM22.6831 25.8482C25.5125 25.6084 31.9865 24.3616 31.9865 18.6069C31.9865 11.3656 21.2924 11.3656 21.2924 11.3656H12.7083L22.6831 25.8482Z" fill="white"/>
<path d="M85.266 53.0871H62.8227L60.0892 59.8009H48.5798L74.0444 0L99.6048 59.8009H88.0954L85.266 53.0871ZM66.2755 44.6948H81.8132L74.0444 24.5534L66.2755 44.6948Z" fill="white"/>
<path d="M117.492 1.67844C133.029 1.67844 154.849 4.93944 154.849 30.7397C154.849 55.5808 133.413 59.8009 117.492 59.8009H106.797V1.67844H117.492ZM144.059 30.7397C144.059 7.4811 117.492 11.1258 117.492 11.1258V50.3057C117.492 50.3536 144.059 53.6626 144.059 30.7397Z" fill="white"/>
<path d="M181.226 10.5983V50.9291H188.707V59.8009H163.05V50.9291H170.531V10.5983H163.386V1.72644H188.323V10.5983H181.226Z" fill="white"/>
<path d="M228.222 60.5682C186.021 60.5682 186.117 0.959099 228.222 0.959099C270.135 0.959099 270.231 60.5682 228.222 60.5682ZM228.222 10.4064C200.647 10.4064 200.551 51.1688 228.222 51.1688C255.892 51.1688 255.892 10.4064 228.222 10.4064Z" fill="white"/>
<path d="M327.299 31.2672L353.866 59.8488H339.911L320.201 37.7412L314.159 43.8796V59.8009H303.465V1.67844H314.159V30.9794L340.343 1.67844H353.674L327.299 31.2672Z" fill="white"/>
<path d="M404.987 18.6548C404.987 35.5832 383.695 35.5832 383.695 35.5832H373.096V59.8489H362.402V25.9921H372.521L362.402 11.4615V1.72641H383.695C383.695 1.67846 404.987 1.67847 404.987 18.6548ZM394.389 18.6548C394.389 11.4135 383.695 11.4135 383.695 11.4135H375.111L385.085 25.8482C387.915 25.5125 394.389 24.2657 394.389 18.6548Z" fill="white"/>
<path d="M429.636 10.5983V50.9291H437.118V59.8009H411.461V50.9291H418.942V10.5983H411.797V1.72644H436.734V10.5983H429.636Z" fill="white"/>
</g>
<defs>
<filter id="filter0_i" x="0" y="0" width="438.117" height="61.5682" filterUnits="userSpaceOnUse" color-interpolation-filters="sRGB">
<feFlood flood-opacity="0" result="BackgroundImageFix"/>
<feBlend mode="normal" in="SourceGraphic" in2="BackgroundImageFix" result="shape"/>
<feColorMatrix in="SourceAlpha" type="matrix" values="0 0 0 0 0 0 0 0 0 0 0 0 0 0 0 0 0 0 127 0" result="hardAlpha"/>
<feOffset dx="1" dy="4"/>
<feGaussianBlur stdDeviation="0.5"/>
<feComposite in2="hardAlpha" operator="arithmetic" k2="-1" k3="1"/>
<feColorMatrix type="matrix" values="0 0 0 0 0 0 0 0 0 0 0 0 0 0 0 0 0 0 0.1 0"/>
<feBlend mode="normal" in2="shape" result="effect1_innerShadow"/>
</filter>
</defs>
</svg>
