<svg width="44" height="44" viewBox="0 0 44 44" fill="none" xmlns="http://www.w3.org/2000/svg">
<path d="M5.5 33V22C5.5 17.6239 7.23839 13.4271 10.3327 10.3327C13.4271 7.23839 17.6239 5.5 22 5.5C26.3761 5.5 30.5729 7.23839 33.6673 10.3327C36.7616 13.4271 38.5 17.6239 38.5 22V33" stroke="white" stroke-width="2" stroke-linecap="round" stroke-linejoin="round"/>
<path d="M38.5 34.8333C38.5 35.8058 38.1137 36.7384 37.4261 37.426C36.7384 38.1137 35.8058 38.5 34.8333 38.5H33C32.0275 38.5 31.0949 38.1137 30.4073 37.426C29.7196 36.7384 29.3333 35.8058 29.3333 34.8333V29.3333C29.3333 28.3609 29.7196 27.4282 30.4073 26.7406C31.0949 26.053 32.0275 25.6667 33 25.6667H38.5V34.8333ZM5.5 34.8333C5.5 35.8058 5.88631 36.7384 6.57394 37.426C7.26158 38.1137 8.19421 38.5 9.16667 38.5H11C11.9725 38.5 12.9051 38.1137 13.5927 37.426C14.2804 36.7384 14.6667 35.8058 14.6667 34.8333V29.3333C14.6667 28.3609 14.2804 27.4282 13.5927 26.7406C12.9051 26.053 11.9725 25.6667 11 25.6667H5.5V34.8333Z" stroke="white" stroke-width="2" stroke-linecap="round" stroke-linejoin="round"/>
</svg>
